<?xml version="1.0" encoding="UTF-8" standalone="no"?>
<!-- Created with Inkscape (http://www.inkscape.org/) -->

<svg
   version="1.1"
   id="svg2"
   xml:space="preserve"
   width="425.32001"
   height="127.70667"
   viewBox="0 0 425.32001 127.70667"
   xmlns="http://www.w3.org/2000/svg"
   xmlns:svg="http://www.w3.org/2000/svg"><defs
     id="defs6" /><g
     id="g8"
     transform="matrix(1.3333333,0,0,-1.3333333,0,127.70667)"><g
       id="g10"
       transform="scale(0.1)"><path
         d="m 980.828,720.078 v -0.008 l -64.566,145.282 v 0 l 30.867,69.464 H 1076.27 Z M 872.512,476.348 c -5.664,-12.5 -15.168,-20.262 -24.836,-20.262 H 559.492 c -9.629,0 -19.121,7.723 -24.785,20.176 L 330.898,934.816 h 129.141 l 177.234,-398.781 0.286,0.059 -0.246,-0.117 c 11.71,-26.055 37.738,-42.879 66.3,-42.879 10.293,0 20.313,2.144 29.754,6.394 16.321,7.324 29.309,20.352 36.574,36.68 h 0.008 l 59.856,134.66 64.57,-145.285 v 0 z M 655.488,846.602 v -0.008 c 5.086,11.406 14.219,21.054 26.504,26.57 7.024,3.164 14.363,4.641 21.594,4.629 20.086,-0.008 39.266,-11.563 48.023,-31.063 v 0.028 L 818.867,695.449 751.68,544.285 v 0.031 c -5.086,-11.406 -14.219,-21.062 -26.504,-26.582 -7.012,-3.144 -14.348,-4.636 -21.563,-4.636 -20.097,0 -39.289,11.558 -48.054,31.082 v -0.028 L 588.32,695.43 Z M 1164.69,436.086 h 172.91 l -230.55,518.73 H 934.141 v 0 l -28.828,-64.843 -14.559,32.773 c -8.664,19.168 -24.691,32.051 -43.039,32.07 H 559.492 c -18.34,0 -34.355,-12.843 -43.027,-31.984 l -14.61,-32.859 -28.82,64.843 H 300.129 v 0 0 L 69.5703,436.086 H 242.48 L 386.582,760.293 415.398,695.449 300.129,436.086 h 172.906 l 28.82,64.844 14.61,-32.864 c 8.672,-19.128 24.687,-31.98 43.027,-31.98 h 288.184 c 18.379,0 34.426,12.898 43.086,32.098 l 14.558,32.746 28.821,-64.844 h 172.909 l -115.273,259.363 28.823,64.844 144.09,-324.207"
         style="fill:#ffffff;fill-opacity:1;fill-rule:nonzero;stroke:none"
         id="path12" /><path
         d="m 48.2813,358.027 c -1.9727,3.789 -5.5743,5.684 -10.8008,5.684 -2.8907,0 -5.2617,-0.781 -7.1289,-2.324 -1.875,-1.543 -3.3399,-4.063 -4.4024,-7.528 -1.0664,-3.468 -1.8164,-8.007 -2.2461,-13.617 -0.4297,-5.601 -0.6367,-12.461 -0.6367,-20.574 0,-8.652 0.293,-15.645 0.8789,-20.977 0.586,-5.351 1.4844,-9.48 2.7149,-12.421 1.2304,-2.942 2.7851,-4.911 4.6484,-5.918 1.875,-1.028 4.0234,-1.524 6.4844,-1.524 2.0312,0 3.9258,0.344 5.6836,1.035 1.7656,0.696 3.2929,2.09 4.5703,4.168 1.289,2.082 2.2969,5.012 3.0469,8.801 0.7421,3.789 1.125,8.789 1.125,14.981 h 23.0546 c 0,-6.192 -0.4804,-12.071 -1.4336,-17.618 -0.9687,-5.554 -2.7539,-10.41 -5.371,-14.57 -2.6211,-4.172 -6.3008,-7.422 -11.0469,-9.773 -4.7578,-2.344 -10.918,-3.528 -18.5078,-3.528 -8.6407,0 -15.5352,1.387 -20.6524,4.168 -5.125,2.778 -9.05467,6.781 -11.77732,12.016 C 3.76172,283.73 2,289.98 1.19922,297.246 0.402344,304.504 0,312.512 0,321.27 c 0,8.64 0.402344,16.632 1.19922,23.945 0.80078,7.305 2.5625,13.586 5.28516,18.816 2.72265,5.227 6.65232,9.309 11.77732,12.246 5.1172,2.942 12.0117,4.418 20.6524,4.418 8.2265,0 14.707,-1.34 19.4648,-4.015 4.7461,-2.664 8.3008,-6.055 10.6524,-10.164 2.3476,-4.114 3.8125,-8.547 4.4062,-13.293 0.5859,-4.754 0.8789,-9.207 0.8789,-13.379 H 51.25 c 0,8.34 -0.9844,14.394 -2.9687,18.183"
         style="fill:#ffffff;fill-opacity:1;fill-rule:nonzero;stroke:none"
         id="path14" /><path
         d="m 123.164,304.375 c -1.711,-0.703 -3.254,-1.199 -4.648,-1.531 -4.485,-0.957 -7.688,-2.551 -9.61,-4.797 -1.926,-2.246 -2.883,-5.281 -2.883,-9.129 0,-3.313 0.637,-6.145 1.926,-8.488 1.289,-2.356 3.418,-3.528 6.406,-3.528 1.497,0 3.04,0.239 4.649,0.727 1.601,0.476 3.066,1.25 4.394,2.312 1.336,1.075 2.43,2.461 3.29,4.172 0.851,1.707 1.281,3.731 1.281,6.082 v 16.973 c -1.492,-1.172 -3.098,-2.109 -4.805,-2.793 z m -35.5585,21.543 c 0,5.02 0.8047,9.211 2.4062,12.57 1.5977,3.36 3.7578,6.082 6.4805,8.164 2.7266,2.086 5.9298,3.582 9.6208,4.493 3.684,0.906 7.598,1.355 11.77,1.355 6.609,0 11.953,-0.645 16.012,-1.926 4.054,-1.277 7.21,-3.094 9.445,-5.437 2.246,-2.356 3.769,-5.157 4.57,-8.407 0.801,-3.261 1.199,-6.82 1.199,-10.656 v -45.332 c 0,-4.051 0.188,-7.207 0.559,-9.453 0.371,-2.234 1.094,-4.637 2.168,-7.195 h -21.145 c -0.75,1.375 -1.316,2.851 -1.675,4.402 -0.383,1.543 -0.727,3.067 -1.047,4.563 h -0.324 c -2.555,-4.485 -5.528,-7.395 -8.883,-8.723 -3.371,-1.336 -7.715,-2.012 -13.059,-2.012 -3.84,0 -7.1014,0.676 -9.7655,2.012 -2.6758,1.328 -4.8047,3.164 -6.4062,5.519 -1.6016,2.352 -2.7735,4.989 -3.5235,7.926 -0.7539,2.934 -1.125,5.852 -1.125,8.735 0,4.05 0.4297,7.547 1.2891,10.488 0.8515,2.937 2.1601,5.437 3.9179,7.527 1.7657,2.082 4.004,3.821 6.7266,5.207 2.7227,1.387 6.0036,2.617 9.8436,3.68 l 12.5,3.359 c 3.313,0.86 5.606,2.032 6.895,3.528 1.269,1.492 1.914,3.687 1.914,6.57 0,3.301 -0.781,5.898 -2.324,7.766 -1.543,1.863 -4.192,2.8 -7.93,2.8 -3.418,0 -5.977,-1.015 -7.676,-3.039 -1.719,-2.027 -2.566,-4.754 -2.566,-8.172 v -2.402 H 87.6055 v 2.09"
         style="fill:#ffffff;fill-opacity:1;fill-rule:nonzero;stroke:none"
         id="path16" /><path
         d="m 180.984,289.395 c 0,-3.743 0.989,-6.758 2.961,-9.043 1.973,-2.305 4.825,-3.45 8.567,-3.45 3.418,0 6.14,0.852 8.172,2.563 2.031,1.707 3.046,4.265 3.046,7.691 0,2.778 -0.808,4.875 -2.414,6.321 -1.597,1.445 -3.464,2.589 -5.593,3.449 l -15.547,5.601 c -6.082,2.141 -10.672,5.149 -13.77,9.043 -3.093,3.91 -4.636,8.899 -4.636,14.985 0,3.523 0.574,6.863 1.753,10.008 1.172,3.144 3.04,5.898 5.598,8.242 2.567,2.351 5.859,4.218 9.863,5.617 4.004,1.387 8.829,2.078 14.485,2.078 10.047,0 17.469,-2.137 22.261,-6.406 4.805,-4.278 7.219,-10.301 7.219,-18.094 v -3.527 h -19.863 c 0,4.484 -0.723,7.765 -2.168,9.843 -1.438,2.09 -3.977,3.125 -7.598,3.125 -2.785,0 -5.215,-0.769 -7.297,-2.312 -2.078,-1.555 -3.125,-3.879 -3.125,-6.977 0,-2.136 0.676,-4.058 2.004,-5.757 1.336,-1.711 3.868,-3.157 7.61,-4.329 l 13.301,-4.48 c 6.929,-2.356 11.843,-5.422 14.722,-9.211 2.895,-3.801 4.328,-8.945 4.328,-15.457 0,-4.594 -0.8,-8.566 -2.402,-11.934 -1.602,-3.371 -3.809,-6.164 -6.641,-8.41 -2.832,-2.246 -6.191,-3.847 -10.097,-4.804 -3.899,-0.957 -8.196,-1.446 -12.891,-1.446 -6.191,0 -11.348,0.586 -15.449,1.77 -4.113,1.172 -7.371,2.929 -9.778,5.281 -2.402,2.344 -4.082,5.203 -5.046,8.566 -0.957,3.368 -1.438,7.129 -1.438,11.297 v 3.039 h 19.863 v -2.882"
         style="fill:#ffffff;fill-opacity:1;fill-rule:nonzero;stroke:none"
         id="path18" /><path
         d="m 271.309,304.375 c -1.7,-0.703 -3.25,-1.199 -4.637,-1.531 -4.484,-0.957 -7.688,-2.551 -9.609,-4.797 -1.926,-2.246 -2.883,-5.281 -2.883,-9.129 0,-3.313 0.633,-6.145 1.925,-8.488 1.278,-2.356 3.407,-3.528 6.395,-3.528 1.492,0 3.047,0.239 4.648,0.727 1.602,0.476 3.067,1.25 4.407,2.312 1.336,1.075 2.429,2.461 3.281,4.172 0.855,1.707 1.285,3.731 1.285,6.082 v 16.973 c -1.504,-1.172 -3.101,-2.109 -4.812,-2.793 z m -35.547,21.543 c 0,5.02 0.801,9.211 2.402,12.57 1.602,3.36 3.762,6.082 6.484,8.164 2.723,2.086 5.918,3.582 9.61,4.493 3.68,0.906 7.605,1.355 11.765,1.355 6.622,0 11.965,-0.645 16.016,-1.926 4.066,-1.277 7.207,-3.094 9.453,-5.437 2.238,-2.356 3.762,-5.157 4.563,-8.407 0.8,-3.261 1.211,-6.82 1.211,-10.656 v -45.332 c 0,-4.051 0.175,-7.207 0.554,-9.453 0.371,-2.234 1.094,-4.637 2.16,-7.195 h -21.14 c -0.742,1.375 -1.313,2.851 -1.684,4.402 -0.379,1.543 -0.718,3.067 -1.035,4.563 h -0.32 c -2.571,-4.485 -5.528,-7.395 -8.887,-8.723 -3.367,-1.336 -7.715,-2.012 -13.059,-2.012 -3.843,0 -7.097,0.676 -9.773,2.012 -2.668,1.328 -4.805,3.164 -6.406,5.519 -1.602,2.352 -2.774,4.989 -3.516,7.926 -0.754,2.934 -1.125,5.852 -1.125,8.735 0,4.05 0.422,7.547 1.281,10.488 0.848,2.937 2.161,5.437 3.926,7.527 1.758,2.082 4.004,3.821 6.719,5.207 2.727,1.387 6.016,2.617 9.852,3.68 l 12.492,3.359 c 3.32,0.86 5.605,2.032 6.894,3.528 1.281,1.492 1.922,3.687 1.922,6.57 0,3.301 -0.777,5.898 -2.32,7.766 -1.555,1.863 -4.192,2.8 -7.934,2.8 -3.418,0 -5.984,-1.015 -7.683,-3.039 -1.719,-2.027 -2.571,-4.754 -2.571,-8.172 v -2.402 h -19.851 v 2.09"
         style="fill:#ffffff;fill-opacity:1;fill-rule:nonzero;stroke:none"
         id="path20" /><path
         d="m 386.785,304.375 c -1.707,-0.703 -3.25,-1.199 -4.637,-1.531 -4.492,-0.957 -7.695,-2.551 -9.609,-4.797 -1.934,-2.246 -2.891,-5.281 -2.891,-9.129 0,-3.313 0.645,-6.145 1.922,-8.488 1.282,-2.356 3.418,-3.528 6.41,-3.528 1.493,0 3.036,0.239 4.649,0.727 1.601,0.476 3.062,1.25 4.402,2.312 1.328,1.075 2.422,2.461 3.282,4.172 0.859,1.707 1.289,3.731 1.289,6.082 v 16.973 c -1.504,-1.172 -3.106,-2.109 -4.817,-2.793 z m -35.555,21.543 c 0,5.02 0.801,9.211 2.403,12.57 1.601,3.36 3.769,6.082 6.484,8.164 2.735,2.086 5.93,3.582 9.61,4.493 3.691,0.906 7.609,1.355 11.777,1.355 6.621,0 11.953,-0.645 16.016,-1.926 4.062,-1.277 7.207,-3.094 9.453,-5.437 2.246,-2.356 3.757,-5.157 4.558,-8.407 0.805,-3.261 1.203,-6.82 1.203,-10.656 v -45.332 c 0,-4.051 0.188,-7.207 0.559,-9.453 0.379,-2.234 1.102,-4.637 2.168,-7.195 h -21.145 c -0.753,1.375 -1.308,2.851 -1.679,4.402 -0.379,1.543 -0.723,3.067 -1.035,4.563 h -0.332 c -2.559,-4.485 -5.516,-7.395 -8.887,-8.723 -3.36,-1.336 -7.715,-2.012 -13.059,-2.012 -3.836,0 -7.097,0.676 -9.761,2.012 -2.668,1.328 -4.805,3.164 -6.411,5.519 -1.597,2.352 -2.769,4.989 -3.523,7.926 -0.742,2.934 -1.113,5.852 -1.113,8.735 0,4.05 0.422,7.547 1.269,10.488 0.86,2.937 2.168,5.437 3.938,7.527 1.757,2.082 3.992,3.821 6.726,5.207 2.715,1.387 5.996,2.617 9.844,3.68 l 12.488,3.359 c 3.313,0.86 5.61,2.032 6.887,3.528 1.289,1.492 1.934,3.687 1.934,6.57 0,3.301 -0.782,5.898 -2.332,7.766 -1.543,1.863 -4.192,2.8 -7.922,2.8 -3.418,0 -5.989,-1.015 -7.696,-3.039 -1.711,-2.027 -2.558,-4.754 -2.558,-8.172 v -2.402 H 351.23 v 2.09"
         style="fill:#ffffff;fill-opacity:1;fill-rule:nonzero;stroke:none"
         id="path22" /><path
         d="m 452.695,285.957 c 1.446,-4.758 4.618,-7.129 9.532,-7.129 4.804,0 7.929,2.371 9.367,7.129 1.441,4.746 2.168,11.816 2.168,21.211 0,9.395 -0.727,16.477 -2.168,21.23 -1.438,4.747 -4.563,7.129 -9.367,7.129 -4.914,0 -8.086,-2.382 -9.532,-7.129 -1.445,-4.753 -2.168,-11.835 -2.168,-21.23 0,-9.395 0.723,-16.465 2.168,-21.211 z m -2.168,92.488 v -36.199 h 0.332 c 2.344,3.418 4.981,5.988 7.918,7.695 2.942,1.7 6.496,2.559 10.657,2.559 9.074,0 15.754,-3.555 20.019,-10.652 4.27,-7.102 6.406,-18.664 6.406,-34.68 0,-16.016 -2.136,-27.488 -6.406,-34.434 -4.265,-6.933 -10.945,-10.41 -20.019,-10.41 -4.493,0 -8.25,0.801 -11.289,2.403 -3.047,1.601 -5.801,4.433 -8.25,8.496 h -0.325 v -9.129 h -21.14 v 114.351 h 22.097"
         style="fill:#ffffff;fill-opacity:1;fill-rule:nonzero;stroke:none"
         id="path24" /><path
         d="m 531.418,350.254 v -86.16 h -22.102 v 86.16 z m 0,29.473 v -18.895 h -22.102 v 18.895 h 22.102"
         style="fill:#ffffff;fill-opacity:1;fill-rule:nonzero;stroke:none"
         id="path26" /><path
         d="m 587.793,325.676 c -0.32,2.508 -0.879,4.637 -1.68,6.406 -0.8,1.758 -1.925,3.094 -3.359,4.004 -1.445,0.906 -3.289,1.355 -5.527,1.355 -2.247,0 -4.09,-0.507 -5.528,-1.511 -1.445,-1.02 -2.59,-2.356 -3.445,-4.016 -0.852,-1.648 -1.469,-3.496 -1.836,-5.527 -0.383,-2.024 -0.566,-4.051 -0.566,-6.082 v -3.36 h 22.586 c -0.118,3.309 -0.325,6.219 -0.645,8.731 z m -21.941,-28.75 c 0,-2.563 0.183,-5.051 0.566,-7.453 0.367,-2.403 0.984,-4.532 1.836,-6.407 0.855,-1.867 1.973,-3.359 3.355,-4.48 1.399,-1.125 3.11,-1.684 5.129,-1.684 3.742,0 6.465,1.332 8.172,4.004 1.711,2.668 2.883,6.731 3.528,12.168 h 19.855 c -0.422,-10.039 -3.098,-17.664 -8,-22.898 -4.922,-5.235 -12.656,-7.852 -23.23,-7.852 -8.008,0 -14.25,1.336 -18.743,4.004 -4.48,2.676 -7.793,6.192 -9.929,10.574 -2.141,4.375 -3.442,9.289 -3.918,14.739 -0.489,5.437 -0.723,10.886 -0.723,16.339 0,5.758 0.398,11.305 1.199,16.649 0.805,5.344 2.406,10.09 4.797,14.258 2.41,4.16 5.859,7.472 10.344,9.933 4.48,2.45 10.457,3.68 17.937,3.68 6.407,0 11.661,-1.035 15.774,-3.125 4.109,-2.078 7.344,-5.02 9.695,-8.809 2.344,-3.789 3.945,-8.378 4.797,-13.769 0.848,-5.391 1.285,-11.406 1.285,-18.02 v -4.968 h -43.726 v -6.883"
         style="fill:#ffffff;fill-opacity:1;fill-rule:nonzero;stroke:none"
         id="path28" /><path
         d="M 642.246,350.254 V 338.73 h 0.32 c 2.239,4.161 4.961,7.5 8.164,10.008 3.215,2.512 7.102,3.762 11.704,3.762 0.632,0 1.304,-0.027 2,-0.078 0.695,-0.059 1.359,-0.137 2.004,-0.242 v -21.145 c -1.184,0.11 -2.329,0.188 -3.45,0.242 -1.125,0.051 -2.265,0.082 -3.437,0.082 -1.922,0 -3.848,-0.265 -5.774,-0.8 -1.922,-0.539 -3.679,-1.418 -5.281,-2.649 -1.601,-1.219 -2.891,-2.82 -3.848,-4.805 -0.957,-1.972 -1.445,-4.406 -1.445,-7.285 v -51.726 h -22.098 v 86.16 h 21.141"
         style="fill:#ffffff;fill-opacity:1;fill-rule:nonzero;stroke:none"
         id="path30" /><path
         d="m 701.348,374.922 v -24.668 h 12.812 v -15.047 h -12.812 v -46.613 c 0,-3.418 0.507,-5.852 1.523,-7.285 1.016,-1.446 3.125,-2.168 6.328,-2.168 0.852,0 1.699,0.031 2.559,0.089 0.859,0.047 1.66,0.125 2.402,0.235 v -15.371 c -2.461,0 -4.824,-0.09 -7.129,-0.246 -2.297,-0.157 -4.718,-0.243 -7.285,-0.243 -4.266,0 -7.766,0.301 -10.488,0.887 -2.727,0.586 -4.805,1.758 -6.25,3.516 -1.438,1.769 -2.422,4.094 -2.957,6.972 -0.539,2.883 -0.805,6.512 -0.805,10.887 v 49.34 h -11.211 v 15.047 h 11.211 v 24.668 h 22.102"
         style="fill:#ffffff;fill-opacity:1;fill-rule:nonzero;stroke:none"
         id="path32" /><path
         d="m 757.246,304.375 c -1.711,-0.703 -3.262,-1.199 -4.648,-1.531 -4.485,-0.957 -7.696,-2.551 -9.61,-4.797 -1.925,-2.246 -2.883,-5.281 -2.883,-9.129 0,-3.313 0.637,-6.145 1.926,-8.488 1.282,-2.356 3.418,-3.528 6.407,-3.528 1.484,0 3.039,0.239 4.636,0.727 1.614,0.476 3.078,1.25 4.406,2.312 1.336,1.075 2.43,2.461 3.282,4.172 0.859,1.707 1.289,3.731 1.289,6.082 v 16.973 c -1.492,-1.172 -3.106,-2.109 -4.805,-2.793 z m -35.566,21.543 c 0,5.02 0.808,9.211 2.414,12.57 1.597,3.36 3.758,6.082 6.48,8.164 2.727,2.086 5.93,3.582 9.614,4.493 3.679,0.906 7.605,1.355 11.777,1.355 6.609,0 11.953,-0.645 16.015,-1.926 4.051,-1.277 7.208,-3.094 9.442,-5.437 2.246,-2.356 3.769,-5.157 4.57,-8.407 0.801,-3.261 1.199,-6.82 1.199,-10.656 v -45.332 c 0,-4.051 0.188,-7.207 0.559,-9.453 0.371,-2.234 1.094,-4.637 2.168,-7.195 h -21.145 c -0.75,1.375 -1.304,2.851 -1.687,4.402 -0.371,1.543 -0.723,3.067 -1.035,4.563 h -0.321 c -2.57,-4.485 -5.531,-7.395 -8.886,-8.723 -3.371,-1.336 -7.715,-2.012 -13.059,-2.012 -3.847,0 -7.109,0.676 -9.765,2.012 -2.676,1.328 -4.805,3.164 -6.407,5.519 -1.601,2.352 -2.785,4.989 -3.535,7.926 -0.742,2.934 -1.113,5.852 -1.113,8.735 0,4.05 0.43,7.547 1.277,10.488 0.863,2.937 2.16,5.437 3.93,7.527 1.766,2.082 4.004,3.821 6.726,5.207 2.723,1.387 6.004,2.617 9.844,3.68 l 12.5,3.359 c 3.301,0.86 5.606,2.032 6.887,3.528 1.277,1.492 1.922,3.687 1.922,6.57 0,3.301 -0.774,5.898 -2.324,7.766 -1.551,1.863 -4.192,2.8 -7.93,2.8 -3.418,0 -5.977,-1.015 -7.688,-3.039 -1.707,-2.027 -2.554,-4.754 -2.554,-8.172 v -2.402 H 721.68 v 2.09"
         style="fill:#ffffff;fill-opacity:1;fill-rule:nonzero;stroke:none"
         id="path34" /><path
         d="m 872.727,304.375 c -1.711,-0.703 -3.262,-1.199 -4.653,-1.531 -4.48,-0.957 -7.683,-2.551 -9.605,-4.797 -1.926,-2.246 -2.883,-5.281 -2.883,-9.129 0,-3.313 0.637,-6.145 1.914,-8.488 1.289,-2.356 3.418,-3.528 6.418,-3.528 1.492,0 3.035,0.239 4.637,0.727 1.601,0.476 3.066,1.25 4.406,2.312 1.336,1.075 2.43,2.461 3.289,4.172 0.852,1.707 1.277,3.731 1.277,6.082 v 16.973 c -1.492,-1.172 -3.101,-2.109 -4.8,-2.793 z m -35.559,21.543 c 0,5.02 0.801,9.211 2.402,12.57 1.602,3.36 3.758,6.082 6.485,8.164 2.715,2.086 5.925,3.582 9.609,4.493 3.684,0.906 7.606,1.355 11.777,1.355 6.614,0 11.954,-0.645 16.016,-1.926 4.055,-1.277 7.207,-3.094 9.441,-5.437 2.247,-2.356 3.774,-5.157 4.563,-8.407 0.801,-3.261 1.211,-6.82 1.211,-10.656 v -45.332 c 0,-4.051 0.176,-7.207 0.558,-9.453 0.372,-2.234 1.09,-4.637 2.157,-7.195 h -21.133 c -0.75,1.375 -1.309,2.851 -1.691,4.402 -0.372,1.543 -0.711,3.067 -1.036,4.563 h -0.32 c -2.566,-4.485 -5.527,-7.395 -8.887,-8.723 -3.371,-1.336 -7.715,-2.012 -13.054,-2.012 -3.84,0 -7.102,0.676 -9.778,2.012 -2.668,1.328 -4.804,3.164 -6.394,5.519 -1.606,2.352 -2.785,4.989 -3.528,7.926 -0.753,2.934 -1.125,5.852 -1.125,8.735 0,4.05 0.422,7.547 1.282,10.488 0.859,2.937 2.168,5.437 3.925,7.527 1.758,2.082 4.004,3.821 6.731,5.207 2.723,1.387 6.004,2.617 9.844,3.68 l 12.488,3.359 c 3.309,0.86 5.605,2.032 6.894,3.528 1.282,1.492 1.922,3.687 1.922,6.57 0,3.301 -0.769,5.898 -2.324,7.766 -1.551,1.863 -4.187,2.8 -7.93,2.8 -3.418,0 -5.984,-1.015 -7.683,-3.039 -1.707,-2.027 -2.559,-4.754 -2.559,-8.172 v -2.402 h -19.863 v 2.09"
         style="fill:#ffffff;fill-opacity:1;fill-rule:nonzero;stroke:none"
         id="path36" /><path
         d="M 937.266,378.445 V 264.094 h -22.098 v 114.351 h 22.098"
         style="fill:#ffffff;fill-opacity:1;fill-rule:nonzero;stroke:none"
         id="path38" /><path
         d="m 1018.14,374.922 v -24.668 h 12.82 v -15.047 h -12.82 v -46.613 c 0,-3.418 0.51,-5.852 1.53,-7.285 1.01,-1.446 3.12,-2.168 6.33,-2.168 0.86,0 1.71,0.031 2.55,0.089 0.86,0.047 1.66,0.125 2.41,0.235 v -15.371 c -2.46,0 -4.84,-0.09 -7.13,-0.246 -2.3,-0.157 -4.72,-0.243 -7.29,-0.243 -4.27,0 -7.76,0.301 -10.49,0.887 -2.72,0.586 -4.8,1.758 -6.245,3.516 -1.446,1.769 -2.434,4.094 -2.957,6.972 -0.539,2.883 -0.801,6.512 -0.801,10.887 v 49.34 h -11.211 v 15.047 h 11.211 v 24.668 h 22.093"
         style="fill:#ffffff;fill-opacity:1;fill-rule:nonzero;stroke:none"
         id="path40" /><path
         d="m 1061.55,350.254 v -86.16 h -22.1 v 86.16 z m 0,29.473 v -18.895 h -22.1 v 18.895 h 22.1"
         style="fill:#ffffff;fill-opacity:1;fill-rule:nonzero;stroke:none"
         id="path42" /><path
         d="m 1117.93,325.676 c -0.32,2.508 -0.89,4.637 -1.68,6.406 -0.8,1.758 -1.92,3.094 -3.37,4.004 -1.44,0.906 -3.28,1.355 -5.53,1.355 -2.23,0 -4.08,-0.507 -5.52,-1.511 -1.44,-1.02 -2.59,-2.356 -3.44,-4.016 -0.86,-1.648 -1.48,-3.496 -1.85,-5.527 -0.37,-2.024 -0.55,-4.051 -0.55,-6.082 v -3.36 h 22.58 c -0.11,3.309 -0.33,6.219 -0.64,8.731 z m -21.94,-28.75 c 0,-2.563 0.18,-5.051 0.55,-7.453 0.37,-2.403 0.99,-4.532 1.85,-6.407 0.85,-1.867 1.97,-3.359 3.36,-4.48 1.38,-1.125 3.09,-1.684 5.13,-1.684 3.74,0 6.45,1.332 8.16,4.004 1.71,2.668 2.89,6.731 3.53,12.168 h 19.86 c -0.43,-10.039 -3.1,-17.664 -8.01,-22.898 -4.91,-5.235 -12.66,-7.852 -23.22,-7.852 -8.02,0 -14.26,1.336 -18.74,4.004 -4.49,2.676 -7.8,6.192 -9.93,10.574 -2.14,4.375 -3.45,9.289 -3.93,14.739 -0.48,5.437 -0.71,10.886 -0.71,16.339 0,5.758 0.39,11.305 1.19,16.649 0.8,5.344 2.4,10.09 4.8,14.258 2.41,4.16 5.85,7.472 10.33,9.933 4.5,2.45 10.47,3.68 17.94,3.68 6.41,0 11.67,-1.035 15.79,-3.125 4.11,-2.078 7.33,-5.02 9.68,-8.809 2.36,-3.789 3.95,-8.378 4.81,-13.769 0.85,-5.391 1.28,-11.406 1.28,-18.02 v -4.968 h -43.72 v -6.883"
         style="fill:#ffffff;fill-opacity:1;fill-rule:nonzero;stroke:none"
         id="path44" /><path
         d="m 1172.38,350.254 v -8.809 h 0.33 c 2.77,3.957 5.89,6.789 9.36,8.496 3.47,1.7 7.61,2.559 12.41,2.559 5.13,0 9.43,-1.172 12.89,-3.523 3.48,-2.356 5.79,-5.774 6.98,-10.247 h 0.32 c 1.7,4.59 4.45,8.028 8.24,10.333 3.79,2.285 8.3,3.437 13.55,3.437 7.36,0 12.78,-2.219 16.25,-6.648 3.46,-4.426 5.2,-10.813 5.2,-19.133 v -62.625 h -22.11 v 60.215 c 0,3.632 -0.66,6.406 -1.99,8.328 -1.34,1.926 -3.56,2.89 -6.65,2.89 -3.53,0 -6.33,-1.179 -8.41,-3.523 -2.08,-2.356 -3.12,-6.086 -3.12,-11.211 v -56.699 h -22.1 v 60.215 c 0,3.632 -0.68,6.406 -2.01,8.328 -1.33,1.926 -3.55,2.89 -6.64,2.89 -3.53,0 -6.34,-1.179 -8.42,-3.523 -2.08,-2.356 -3.12,-6.086 -3.12,-11.211 v -56.699 h -22.1 v 86.16 h 21.14"
         style="fill:#ffffff;fill-opacity:1;fill-rule:nonzero;stroke:none"
         id="path46" /><path
         d="m 1296.91,285.957 c 1.44,-4.758 4.61,-7.129 9.54,-7.129 4.8,0 7.92,2.371 9.36,7.129 1.44,4.746 2.16,11.816 2.16,21.211 0,9.395 -0.72,16.477 -2.16,21.23 -1.44,4.747 -4.56,7.129 -9.36,7.129 -4.93,0 -8.1,-2.382 -9.54,-7.129 -1.44,-4.753 -2.16,-11.835 -2.16,-21.23 0,-9.395 0.72,-16.465 2.16,-21.211 z m -3.12,64.297 v -9.129 h 0.31 c 2.46,4.063 5.22,6.973 8.25,8.738 3.05,1.758 6.81,2.637 11.3,2.637 9.07,0 15.74,-3.555 20.02,-10.652 4.27,-7.102 6.41,-18.664 6.41,-34.68 0,-16.016 -2.14,-27.488 -6.41,-34.434 -4.28,-6.933 -10.95,-10.41 -20.02,-10.41 -4.17,0 -7.71,0.781 -10.65,2.324 -2.94,1.543 -5.58,4.036 -7.93,7.454 h -0.32 v -35.723 h -22.1 v 113.875 h 21.14"
         style="fill:#ffffff;fill-opacity:1;fill-rule:nonzero;stroke:none"
         id="path48" /><path
         d="m 1372.28,295 c 0.2,-3.738 0.71,-6.941 1.51,-9.609 0.8,-2.676 2,-4.754 3.6,-6.25 1.6,-1.493 3.74,-2.239 6.41,-2.239 4.49,0 7.58,2.348 9.3,7.051 1.7,4.699 2.55,12.434 2.55,23.215 0,10.793 -0.85,18.527 -2.55,23.234 -1.72,4.696 -4.81,7.039 -9.3,7.039 -2.67,0 -4.81,-0.742 -6.41,-2.234 -1.6,-1.508 -2.8,-3.586 -3.6,-6.25 -0.8,-2.668 -1.31,-5.871 -1.51,-9.609 -0.23,-3.743 -0.33,-7.805 -0.33,-12.18 0,-4.375 0.1,-8.43 0.33,-12.168 z m -20.67,31.719 c 1.17,5.656 3.1,10.383 5.76,14.172 2.67,3.789 6.17,6.668 10.49,8.652 4.33,1.973 9.64,2.957 15.94,2.957 6.62,0.109 12.12,-0.781 16.49,-2.637 4.39,-1.875 7.85,-4.726 10.42,-8.574 2.56,-3.848 4.38,-8.594 5.44,-14.258 1.08,-5.664 1.6,-12.273 1.6,-19.863 0,-7.363 -0.58,-13.875 -1.75,-19.531 -1.18,-5.664 -3.11,-10.391 -5.77,-14.18 -2.67,-3.789 -6.17,-6.594 -10.49,-8.406 -4.33,-1.817 -9.64,-2.727 -15.94,-2.727 -6.62,-0.097 -12.12,0.723 -16.5,2.481 -4.37,1.765 -7.85,4.543 -10.41,8.332 -2.55,3.797 -4.37,8.543 -5.44,14.258 -1.07,5.71 -1.61,12.3 -1.61,19.773 0,7.375 0.59,13.887 1.77,19.551"
         style="fill:#ffffff;fill-opacity:1;fill-rule:nonzero;stroke:none"
         id="path50" /><path
         d="m 1569.19,830.867 c 0,-4.469 0.28,-8.562 0.87,-12.281 0.57,-3.711 1.64,-6.945 3.22,-9.668 1.56,-2.727 3.71,-4.887 6.45,-6.445 2.72,-1.575 6.15,-2.364 10.29,-2.364 4.3,0 7.76,0.789 10.41,2.364 2.65,1.558 4.76,3.718 6.33,6.445 1.57,2.723 2.64,5.957 3.22,9.668 0.58,3.719 0.87,7.812 0.87,12.281 v 123.5 h 35.71 v -123.5 c 0,-11.25 -1.57,-20.547 -4.7,-27.906 -3.15,-7.356 -7.37,-13.184 -12.66,-17.481 -5.29,-4.296 -11.33,-7.187 -18.11,-8.683 -6.77,-1.484 -13.8,-2.227 -21.07,-2.227 -7.28,0 -14.31,0.664 -21.08,1.985 -6.78,1.316 -12.82,4.004 -18.11,8.054 -5.29,4.051 -9.5,9.793 -12.65,17.239 -3.14,7.437 -4.7,17.109 -4.7,29.019 v 123.5 h 35.71 v -123.5"
         style="fill:#ffffff;fill-opacity:1;fill-rule:nonzero;stroke:none"
         id="path52" /><path
         d="m 1753.45,833.098 h 0.5 v 121.269 h 32.73 v -177.07 h -40.67 l -43.65,124.004 h -0.49 V 777.297 h -32.74 v 177.07 h 41.16 l 43.16,-121.269"
         style="fill:#ffffff;fill-opacity:1;fill-rule:nonzero;stroke:none"
         id="path54" /><path
         d="m 1813.21,954.367 h 35.72 v -177.07 h -35.72 v 177.07"
         style="fill:#ffffff;fill-opacity:1;fill-rule:nonzero;stroke:none"
         id="path56" /><path
         d="m 1927.05,823.43 h 0.74 l 26.29,130.937 h 36.96 l -40.68,-177.07 h -45.89 l -40.66,177.07 h 38.18 l 25.06,-130.937"
         style="fill:#ffffff;fill-opacity:1;fill-rule:nonzero;stroke:none"
         id="path58" /><path
         d="m 2103.13,925.109 h -63.25 v -41.671 h 59.52 V 854.18 h -59.52 v -47.617 h 65.73 v -29.266 h -101.44 v 177.07 h 98.96 v -29.258"
         style="fill:#ffffff;fill-opacity:1;fill-rule:nonzero;stroke:none"
         id="path60" /><path
         d="m 2174.05,876.992 c 8.6,0 15.21,2.024 19.84,6.074 4.63,4.055 6.94,10.872 6.94,20.461 0,16.368 -8.27,24.551 -24.79,24.551 h -16.87 v -51.086 z m 15.37,77.375 c 14.89,0 26.46,-3.762 34.72,-11.281 8.27,-7.527 12.4,-18.973 12.4,-34.344 0,-11.914 -2.39,-21.621 -7.18,-29.14 -4.81,-7.532 -12.24,-12.364 -22.33,-14.512 v -0.5 c 8.93,-1.317 15.46,-4.207 19.59,-8.684 4.14,-4.461 6.7,-11.648 7.7,-21.57 0.33,-3.309 0.57,-6.902 0.74,-10.789 0.15,-3.891 0.33,-8.227 0.5,-13.02 0.32,-9.422 0.82,-16.609 1.48,-21.574 1,-4.961 3.14,-8.355 6.45,-10.176 v -1.48 h -38.69 c -1.82,2.48 -2.97,5.332 -3.47,8.555 -0.5,3.218 -0.83,6.57 -1,10.046 l -0.98,33.977 c -0.34,6.941 -2.07,12.402 -5.21,16.363 -3.14,3.969 -8.44,5.957 -15.88,5.957 h -19.09 v -74.898 h -35.71 v 177.07 h 65.96"
         style="fill:#ffffff;fill-opacity:1;fill-rule:nonzero;stroke:none"
         id="path62" /><path
         d="m 2290.12,827.395 c 0,-4.141 0.32,-7.903 0.98,-11.29 0.66,-3.39 1.91,-6.242 3.72,-8.554 1.82,-2.317 4.26,-4.133 7.32,-5.449 3.06,-1.329 6.9,-1.993 11.53,-1.993 5.46,0 10.37,1.778 14.76,5.332 4.38,3.551 6.57,9.051 6.57,16.493 0,3.972 -0.54,7.402 -1.61,10.293 -1.08,2.89 -2.85,5.5 -5.33,7.812 -2.48,2.316 -5.76,4.426 -9.8,6.328 -4.05,1.895 -9.05,3.84 -15,5.828 -7.94,2.641 -14.8,5.532 -20.58,8.676 -5.8,3.145 -10.63,6.824 -14.52,11.035 -3.88,4.219 -6.73,9.09 -8.55,14.637 -1.83,5.539 -2.73,11.945 -2.73,19.219 0,17.519 4.88,30.586 14.63,39.179 9.76,8.594 23.15,12.903 40.18,12.903 7.94,0 15.25,-0.871 21.94,-2.61 6.7,-1.738 12.48,-4.55 17.37,-8.425 4.87,-3.887 8.68,-8.848 11.4,-14.883 2.74,-6.035 4.09,-13.274 4.09,-21.699 v -4.961 h -34.21 c 0,8.437 -1.5,14.922 -4.47,19.472 -2.98,4.539 -7.94,6.817 -14.88,6.817 -3.97,0 -7.28,-0.586 -9.92,-1.739 -2.65,-1.152 -4.76,-2.687 -6.33,-4.589 -1.57,-1.895 -2.64,-4.094 -3.22,-6.575 -0.58,-2.468 -0.86,-5.039 -0.86,-7.683 0,-5.449 1.15,-10.039 3.46,-13.762 2.32,-3.719 7.28,-7.156 14.89,-10.293 l 27.53,-11.902 c 6.77,-2.981 12.3,-6.074 16.61,-9.297 4.29,-3.235 7.72,-6.699 10.29,-10.422 2.56,-3.723 4.34,-7.813 5.33,-12.273 0.99,-4.465 1.49,-9.426 1.49,-14.883 0,-18.684 -5.42,-32.285 -16.24,-40.793 -10.83,-8.524 -25.92,-12.774 -45.27,-12.774 -20.16,0 -34.59,4.375 -43.27,13.145 -8.68,8.762 -13.03,21.328 -13.03,37.695 v 7.188 h 35.73 v -5.203"
         style="fill:#ffffff;fill-opacity:1;fill-rule:nonzero;stroke:none"
         id="path64" /><path
         d="m 2391.8,954.367 h 35.7 v -177.07 h -35.7 v 177.07"
         style="fill:#ffffff;fill-opacity:1;fill-rule:nonzero;stroke:none"
         id="path66" /><path
         d="m 2507.36,803.586 c 6.28,0 11.32,1.07 15.13,3.223 3.8,2.148 6.82,5.703 9.05,10.664 2.23,4.961 3.71,11.492 4.47,19.59 0.74,8.105 1.11,18.179 1.11,30.253 0,10.086 -0.33,18.934 -0.99,26.543 -0.66,7.598 -2.03,13.926 -4.1,18.965 -2.07,5.047 -5.12,8.848 -9.17,11.414 -4.05,2.559 -9.46,3.84 -16.24,3.84 h -15.14 V 803.586 Z m 6.95,150.781 c 12.39,0 22.39,-2.023 30.01,-6.074 7.59,-4.055 13.51,-9.836 17.72,-17.363 4.22,-7.52 7.07,-16.575 8.57,-27.149 1.48,-10.586 2.22,-22.414 2.22,-35.468 0,-15.547 -0.95,-29.063 -2.85,-40.547 -1.9,-11.496 -5.18,-20.957 -9.79,-28.403 -4.63,-7.437 -10.83,-12.976 -18.61,-16.609 -7.77,-3.641 -17.61,-5.457 -29.51,-5.457 h -56.29 v 177.07 h 58.53"
         style="fill:#ffffff;fill-opacity:1;fill-rule:nonzero;stroke:none"
         id="path68" /><path
         d="m 2670.29,844.016 -17.11,79.597 h -0.49 l -17.11,-79.597 z m 4.71,110.351 46.88,-177.07 h -37.2 l -8.19,37.449 h -47.11 l -8.19,-37.449 h -37.21 l 46.88,177.07 H 2675"
         style="fill:#ffffff;fill-opacity:1;fill-rule:nonzero;stroke:none"
         id="path70" /><path
         d="m 2787.6,803.586 c 6.28,0 11.32,1.07 15.12,3.223 3.8,2.148 6.82,5.703 9.06,10.664 2.22,4.961 3.72,11.492 4.46,19.59 0.74,8.105 1.11,18.179 1.11,30.253 0,10.086 -0.33,18.934 -0.98,26.543 -0.67,7.598 -2.03,13.926 -4.09,18.965 -2.07,5.047 -5.13,8.848 -9.18,11.414 -4.06,2.559 -9.47,3.84 -16.24,3.84 h -15.14 V 803.586 Z m 6.94,150.781 c 12.4,0 22.4,-2.023 30.01,-6.074 7.6,-4.055 13.52,-9.836 17.74,-17.363 4.2,-7.52 7.06,-16.575 8.55,-27.149 1.48,-10.586 2.23,-22.414 2.23,-35.468 0,-15.547 -0.96,-29.063 -2.86,-40.547 -1.9,-11.496 -5.16,-20.957 -9.79,-28.403 -4.63,-7.437 -10.83,-12.976 -18.6,-16.609 -7.78,-3.641 -17.61,-5.457 -29.52,-5.457 h -56.28 v 177.07 h 58.52"
         style="fill:#ffffff;fill-opacity:1;fill-rule:nonzero;stroke:none"
         id="path72" /><path
         d="m 1609.61,588.008 -17.11,79.609 h -0.5 l -17.11,-79.609 z m 4.71,110.359 46.87,-177.066 h -37.2 l -8.18,37.437 h -47.12 l -8.18,-37.437 h -37.21 l 46.88,177.066 h 44.14"
         style="fill:#ffffff;fill-opacity:1;fill-rule:nonzero;stroke:none"
         id="path74" /><path
         d="m 1707.07,574.863 c 0,-4.461 0.29,-8.554 0.87,-12.273 0.58,-3.723 1.65,-6.945 3.23,-9.668 1.56,-2.734 3.71,-4.887 6.45,-6.457 2.72,-1.57 6.15,-2.352 10.29,-2.352 4.3,0 7.76,0.782 10.41,2.352 2.65,1.57 4.76,3.723 6.33,6.457 1.56,2.723 2.64,5.945 3.22,9.668 0.58,3.719 0.87,7.812 0.87,12.273 v 123.504 h 35.71 V 574.863 c 0,-11.238 -1.57,-20.547 -4.71,-27.898 -3.14,-7.363 -7.36,-13.188 -12.65,-17.481 -5.29,-4.308 -11.33,-7.199 -18.11,-8.683 -6.77,-1.492 -13.8,-2.235 -21.07,-2.235 -7.28,0 -14.31,0.664 -21.08,1.993 -6.78,1.316 -12.82,4.004 -18.11,8.054 -5.29,4.055 -9.5,9.793 -12.65,17.239 -3.14,7.441 -4.7,17.109 -4.7,29.011 v 123.504 h 35.7 V 574.863"
         style="fill:#ffffff;fill-opacity:1;fill-rule:nonzero;stroke:none"
         id="path76" /><path
         d="m 1910.68,669.102 h -38.69 V 521.301 h -35.71 v 147.801 h -38.68 v 29.265 h 113.08 v -29.265"
         style="fill:#ffffff;fill-opacity:1;fill-rule:nonzero;stroke:none"
         id="path78" /><path
         d="m 2014.09,744.492 -24.3,-35.715 h -23.31 l 13.39,35.715 z m -55.17,-165.039 c 0.57,-8.348 1.73,-15.129 3.46,-20.34 1.74,-5.207 4.22,-9.004 7.44,-11.406 3.23,-2.394 7.48,-3.594 12.78,-3.594 5.29,0 9.55,1.2 12.77,3.594 3.22,2.402 5.7,6.199 7.44,11.406 1.74,5.211 2.89,11.992 3.48,20.34 0.57,8.352 0.86,18.477 0.86,30.383 0,11.902 -0.29,21.98 -0.86,30.254 -0.59,8.262 -1.74,15.039 -3.48,20.332 -1.74,5.293 -4.22,9.141 -7.44,11.531 -3.22,2.395 -7.48,3.606 -12.77,3.606 -5.3,0 -9.55,-1.211 -12.78,-3.606 -3.22,-2.39 -5.7,-6.238 -7.44,-11.531 -1.73,-5.293 -2.89,-12.07 -3.46,-20.332 -0.58,-8.274 -0.87,-18.352 -0.87,-30.254 0,-11.906 0.29,-22.031 0.87,-30.383 z m -34.72,67.449 c 1.23,11.332 3.96,21.039 8.18,29.145 4.21,8.105 10.3,14.422 18.23,18.973 7.93,4.543 18.6,6.828 31.99,6.828 13.4,0 24.06,-2.285 31.99,-6.828 7.94,-4.551 14.01,-10.868 18.23,-18.973 4.21,-8.106 6.95,-17.813 8.19,-29.145 1.24,-11.328 1.85,-23.679 1.85,-37.066 0,-13.566 -0.61,-25.957 -1.85,-37.207 -1.24,-11.242 -3.98,-20.918 -8.19,-29.016 -4.22,-8.093 -10.29,-14.297 -18.23,-18.593 -7.93,-4.305 -18.59,-6.454 -31.99,-6.454 -13.39,0 -24.06,2.149 -31.99,6.454 -7.93,4.296 -14.02,10.5 -18.23,18.593 -4.22,8.098 -6.95,17.774 -8.18,29.016 -1.24,11.25 -1.87,23.641 -1.87,37.207 0,13.387 0.63,25.738 1.87,37.066"
         style="fill:#ffffff;fill-opacity:1;fill-rule:nonzero;stroke:none"
         id="path80" /><path
         d="m 2148.26,577.102 h 0.5 v 121.265 h 32.73 V 521.301 h -40.67 l -43.64,123.992 h -0.5 V 521.301 h -32.73 v 177.066 h 41.17 l 43.14,-121.265"
         style="fill:#ffffff;fill-opacity:1;fill-rule:nonzero;stroke:none"
         id="path82" /><path
         d="m 2239.15,579.453 c 0.58,-8.348 1.74,-15.129 3.48,-20.34 1.73,-5.207 4.21,-9.004 7.43,-11.406 3.23,-2.394 7.48,-3.594 12.77,-3.594 5.3,0 9.55,1.2 12.78,3.594 3.22,2.402 5.7,6.199 7.44,11.406 1.74,5.211 2.89,11.992 3.47,20.34 0.58,8.352 0.86,18.477 0.86,30.383 0,11.902 -0.28,21.98 -0.86,30.254 -0.58,8.262 -1.73,15.039 -3.47,20.332 -1.74,5.293 -4.22,9.141 -7.44,11.531 -3.23,2.395 -7.48,3.606 -12.78,3.606 -5.29,0 -9.54,-1.211 -12.77,-3.606 -3.22,-2.39 -5.7,-6.238 -7.43,-11.531 -1.74,-5.293 -2.9,-12.07 -3.48,-20.332 -0.58,-8.274 -0.87,-18.352 -0.87,-30.254 0,-11.906 0.29,-22.031 0.87,-30.383 z m -34.72,67.449 c 1.24,11.332 3.97,21.039 8.19,29.145 4.22,8.105 10.29,14.422 18.22,18.973 7.94,4.543 18.6,6.828 31.99,6.828 13.4,0 24.06,-2.285 31.99,-6.828 7.94,-4.551 14.02,-10.868 18.24,-18.973 4.22,-8.106 6.94,-17.813 8.18,-29.145 1.24,-11.328 1.86,-23.679 1.86,-37.066 0,-13.566 -0.62,-25.957 -1.86,-37.207 -1.24,-11.242 -3.96,-20.918 -8.18,-29.016 -4.22,-8.093 -10.3,-14.297 -18.24,-18.593 -7.93,-4.305 -18.59,-6.454 -31.99,-6.454 -13.39,0 -24.05,2.149 -31.99,6.454 -7.93,4.296 -14,10.5 -18.22,18.593 -4.22,8.098 -6.95,17.774 -8.19,29.016 -1.24,11.25 -1.86,23.641 -1.86,37.207 0,13.387 0.62,25.738 1.86,37.066"
         style="fill:#ffffff;fill-opacity:1;fill-rule:nonzero;stroke:none"
         id="path84" /><path
         d="m 2398,698.367 25.29,-124.988 h 0.5 l 25.55,124.988 h 52.82 V 521.301 h -32.74 v 141.355 h -0.49 l -31.5,-141.355 h -27.78 l -31.5,141.355 h -0.49 V 521.301 h -32.74 V 698.367 H 2398"
         style="fill:#ffffff;fill-opacity:1;fill-rule:nonzero;stroke:none"
         id="path86" /><path
         d="m 2601.6,588.008 -17.11,79.609 h -0.5 l -17.11,-79.609 z m 4.71,110.359 46.87,-177.066 h -37.19 l -8.19,37.437 h -47.12 l -8.18,-37.437 h -37.21 l 46.88,177.066 h 44.14"
         style="fill:#ffffff;fill-opacity:1;fill-rule:nonzero;stroke:none"
         id="path88" /><path
         d="m 1589.52,442.375 25.29,-125 h 0.5 l 25.55,125 h 52.82 V 265.293 h -32.73 v 141.359 h -0.5 l -31.49,-141.359 h -27.79 l -31.48,141.359 h -0.5 V 265.293 h -32.74 v 177.082 h 53.07"
         style="fill:#ffffff;fill-opacity:1;fill-rule:nonzero;stroke:none"
         id="path90" /><path
         d="m 1818.17,413.105 h -63.24 v -41.667 h 59.52 V 342.18 h -59.52 v -47.617 h 65.72 v -29.27 h -101.43 v 177.082 h 98.95 v -29.27"
         style="fill:#ffffff;fill-opacity:1;fill-rule:nonzero;stroke:none"
         id="path92" /><path
         d="m 1942.17,413.105 h -38.68 V 265.293 h -35.72 v 147.812 h -38.69 v 29.27 h 113.09 v -29.27"
         style="fill:#ffffff;fill-opacity:1;fill-rule:nonzero;stroke:none"
         id="path94" /><path
         d="m 2008.14,364.988 c 8.6,0 15.21,2.024 19.84,6.078 4.63,4.051 6.94,10.868 6.94,20.465 0,16.371 -8.27,24.555 -24.79,24.555 h -16.87 v -51.098 z m 15.38,77.387 c 14.88,0 26.44,-3.77 34.71,-11.289 8.27,-7.52 12.4,-18.977 12.4,-34.348 0,-11.902 -2.39,-21.621 -7.18,-29.14 -4.81,-7.528 -12.24,-12.364 -22.33,-14.512 v -0.496 c 8.93,-1.32 15.46,-4.211 19.59,-8.684 4.13,-4.461 6.7,-11.648 7.69,-21.57 0.33,-3.313 0.58,-6.906 0.75,-10.793 0.16,-3.887 0.32,-8.223 0.5,-13.016 0.32,-9.425 0.82,-16.613 1.48,-21.574 1,-4.961 3.14,-8.359 6.45,-10.176 v -1.484 h -38.69 c -1.82,2.48 -2.97,5.332 -3.47,8.555 -0.5,3.222 -0.83,6.574 -1,10.05 l -0.98,33.973 c -0.33,6.945 -2.07,12.402 -5.22,16.367 -3.13,3.965 -8.43,5.957 -15.87,5.957 h -19.09 v -74.902 h -35.71 v 177.082 h 65.97"
         style="fill:#ffffff;fill-opacity:1;fill-rule:nonzero;stroke:none"
         id="path96" /><path
         d="m 2128.29,323.445 c 0.58,-8.347 1.74,-15.125 3.48,-20.332 1.74,-5.203 4.21,-9.011 7.44,-11.402 3.22,-2.402 7.47,-3.606 12.76,-3.606 5.3,0 9.55,1.204 12.78,3.606 3.22,2.391 5.7,6.199 7.44,11.402 1.74,5.207 2.89,11.985 3.47,20.332 0.58,8.352 0.87,18.481 0.87,30.383 0,11.906 -0.29,21.992 -0.87,30.266 -0.58,8.261 -1.73,15.039 -3.47,20.332 -1.74,5.293 -4.22,9.129 -7.44,11.531 -3.23,2.395 -7.48,3.594 -12.78,3.594 -5.29,0 -9.54,-1.199 -12.76,-3.594 -3.23,-2.402 -5.7,-6.238 -7.44,-11.531 -1.74,-5.293 -2.9,-12.071 -3.48,-20.332 -0.58,-8.274 -0.87,-18.36 -0.87,-30.266 0,-11.902 0.29,-22.031 0.87,-30.383 z m -34.72,67.461 c 1.24,11.332 3.97,21.039 8.19,29.145 4.22,8.094 10.29,14.422 18.22,18.972 7.94,4.543 18.6,6.817 31.99,6.817 13.4,0 24.07,-2.274 31.99,-6.817 7.94,-4.55 14.02,-10.878 18.24,-18.972 4.22,-8.106 6.94,-17.813 8.18,-29.145 1.24,-11.324 1.87,-23.679 1.87,-37.078 0,-13.555 -0.63,-25.957 -1.87,-37.195 -1.24,-11.25 -3.96,-20.918 -8.18,-29.016 -4.22,-8.105 -10.3,-14.304 -18.24,-18.601 -7.92,-4.297 -18.59,-6.446 -31.99,-6.446 -13.39,0 -24.05,2.149 -31.99,6.446 -7.93,4.297 -14,10.496 -18.22,18.601 -4.22,8.098 -6.95,17.766 -8.19,29.016 -1.24,11.238 -1.85,23.64 -1.85,37.195 0,13.399 0.61,25.754 1.85,37.078"
         style="fill:#ffffff;fill-opacity:1;fill-rule:nonzero;stroke:none"
         id="path98" /><path
         d="m 2284.9,362.266 c 7.11,0 12.86,2.148 17.25,6.445 4.37,4.297 6.56,10.996 6.56,20.09 0,8.926 -1.89,15.703 -5.7,20.332 -3.8,4.629 -10.17,6.953 -19.09,6.953 h -14.89 v -53.82 z m 10.92,80.109 c 9.09,0 16.74,-1.535 22.94,-4.594 6.2,-3.062 11.2,-7.066 15,-12.027 3.8,-4.961 6.53,-10.625 8.18,-16.992 1.65,-6.367 2.48,-12.856 2.48,-19.465 0,-9.09 -1.35,-17.031 -4.09,-23.809 -2.72,-6.789 -6.53,-12.324 -11.4,-16.621 -4.89,-4.297 -10.79,-7.519 -17.74,-9.668 -6.94,-2.148 -14.63,-3.222 -23.06,-3.222 h -19.1 v -70.684 h -35.71 v 177.082 h 62.5"
         style="fill:#ffffff;fill-opacity:1;fill-rule:nonzero;stroke:none"
         id="path100" /><path
         d="m 2394.89,323.445 c 0.58,-8.347 1.74,-15.125 3.48,-20.332 1.73,-5.203 4.21,-9.011 7.43,-11.402 3.23,-2.402 7.48,-3.606 12.77,-3.606 5.3,0 9.56,1.204 12.78,3.606 3.22,2.391 5.7,6.199 7.44,11.402 1.74,5.207 2.89,11.985 3.48,20.332 0.57,8.352 0.86,18.481 0.86,30.383 0,11.906 -0.29,21.992 -0.86,30.266 -0.59,8.261 -1.74,15.039 -3.48,20.332 -1.74,5.293 -4.22,9.129 -7.44,11.531 -3.22,2.395 -7.48,3.594 -12.78,3.594 -5.29,0 -9.54,-1.199 -12.77,-3.594 -3.22,-2.402 -5.7,-6.238 -7.43,-11.531 -1.74,-5.293 -2.9,-12.071 -3.48,-20.332 -0.57,-8.274 -0.87,-18.36 -0.87,-30.266 0,-11.902 0.3,-22.031 0.87,-30.383 z m -34.71,67.461 c 1.24,11.332 3.96,21.039 8.18,29.145 4.22,8.094 10.29,14.422 18.22,18.972 7.94,4.543 18.61,6.817 31.99,6.817 13.4,0 24.07,-2.274 32,-6.817 7.94,-4.55 14.01,-10.878 18.23,-18.972 4.22,-8.106 6.94,-17.813 8.18,-29.145 1.24,-11.324 1.86,-23.679 1.86,-37.078 0,-13.555 -0.62,-25.957 -1.86,-37.195 -1.24,-11.25 -3.96,-20.918 -8.18,-29.016 -4.22,-8.105 -10.29,-14.304 -18.23,-18.601 -7.93,-4.297 -18.6,-6.446 -32,-6.446 -13.38,0 -24.05,2.149 -31.99,6.446 -7.93,4.297 -14,10.496 -18.22,18.601 -4.22,8.098 -6.94,17.766 -8.18,29.016 -1.24,11.238 -1.87,23.64 -1.87,37.195 0,13.399 0.63,25.754 1.87,37.078"
         style="fill:#ffffff;fill-opacity:1;fill-rule:nonzero;stroke:none"
         id="path102" /><path
         d="m 2499.92,442.375 h 35.71 V 294.563 h 63.25 v -29.27 h -98.96 v 177.082"
         style="fill:#ffffff;fill-opacity:1;fill-rule:nonzero;stroke:none"
         id="path104" /><path
         d="m 2616.48,442.375 h 35.71 V 265.293 h -35.71 v 177.082"
         style="fill:#ffffff;fill-opacity:1;fill-rule:nonzero;stroke:none"
         id="path106" /><path
         d="m 2782.39,413.105 h -38.68 V 265.293 h -35.72 v 147.812 h -38.68 v 29.27 h 113.08 v -29.27"
         style="fill:#ffffff;fill-opacity:1;fill-rule:nonzero;stroke:none"
         id="path108" /><path
         d="m 2858.04,332.012 -17.12,79.601 h -0.49 l -17.12,-79.601 z m 4.7,110.363 46.88,-177.082 h -37.2 l -8.18,37.449 h -47.13 l -8.18,-37.449 h -37.2 l 46.87,177.082 h 44.14"
         style="fill:#ffffff;fill-opacity:1;fill-rule:nonzero;stroke:none"
         id="path110" /><path
         d="m 3006.34,321.094 h 0.5 v 121.281 h 32.73 V 265.293 h -40.67 l -43.65,124.004 h -0.49 V 265.293 h -32.74 v 177.082 h 41.16 l 43.16,-121.281"
         style="fill:#ffffff;fill-opacity:1;fill-rule:nonzero;stroke:none"
         id="path112" /><path
         d="m 3138.27,332.012 -17.12,79.601 h -0.49 l -17.11,-79.601 z m 4.71,110.363 46.87,-177.082 h -37.19 l -8.19,37.449 h -47.12 l -8.19,-37.449 h -37.2 l 46.88,177.082 h 44.14"
         style="fill:#ffffff;fill-opacity:1;fill-rule:nonzero;stroke:none"
         id="path114" /><path
         d="m 1480.58,264.094 h -10 v 690.722 h 10 v -690.722 0"
         style="fill:#ffffff;fill-opacity:1;fill-rule:nonzero;stroke:none"
         id="path116" /><path
         d="m 1560.3,77.7969 c 0,-3.5977 0.22,-6.8985 0.69,-9.8946 0.47,-3.0039 1.34,-5.6015 2.61,-7.8046 1.25,-2.1954 2.99,-3.9297 5.2,-5.1993 2.19,-1.2656 4.96,-1.8984 8.3,-1.8984 3.46,0 6.27,0.6328 8.4,1.8984 2.13,1.2696 3.83,3.0039 5.1,5.1993 1.27,2.2031 2.12,4.8007 2.59,7.8046 0.47,2.9961 0.71,6.2969 0.71,9.8946 v 99.6011 h 28.81 V 77.7969 c 0,-9.0664 -1.27,-16.5664 -3.81,-22.5 -2.54,-5.9336 -5.94,-10.6328 -10.2,-14.0977 -4.28,-3.4687 -9.14,-5.7969 -14.61,-7 -5.47,-1.1992 -11.13,-1.8008 -16.99,-1.8008 -5.88,0 -11.54,0.5352 -17.01,1.6016 -5.47,1.0625 -10.33,3.2305 -14.59,6.5 -4.28,3.2656 -7.68,7.8984 -10.2,13.8984 -2.54,6.0039 -3.81,13.8008 -3.81,23.3985 v 99.6011 h 28.81 V 77.7969"
         style="fill:#57a519;fill-opacity:1;fill-rule:nonzero;stroke:none"
         id="path118" /><path
         d="m 1666.49,142.195 v -12.593 h 0.39 c 2.95,5.332 6.74,9.23 11.41,11.699 4.67,2.465 10,3.699 16,3.699 8.81,0 15.56,-2.402 20.31,-7.203 4.73,-4.797 7.09,-12.598 7.09,-23.399 V 34.6016 h -27.6 v 74.1994 c 0,5.597 -0.94,9.5 -2.79,11.699 -1.88,2.199 -4.88,3.301 -9.01,3.301 -9.72,0 -14.6,-5.934 -14.6,-17.801 V 34.6016 h -27.6 V 142.195 h 26.4"
         style="fill:#57a519;fill-opacity:1;fill-rule:nonzero;stroke:none"
         id="path120" /><path
         d="M 1768.7,142.195 V 34.6016 h -27.62 V 142.195 Z m 0,36.805 v -23.598 h -27.62 V 179 h 27.62"
         style="fill:#57a519;fill-opacity:1;fill-rule:nonzero;stroke:none"
         id="path122" /><path
         d="m 1815.79,61.8984 c 1.8,-5.9296 5.7,-8.8984 11.7,-8.8984 6.13,0 10.1,2.9688 11.89,8.8984 1.82,5.9336 2.72,14.7657 2.72,26.5 0,11.7346 -0.9,20.5666 -2.72,26.4996 -1.79,5.93 -5.76,8.903 -11.89,8.903 -6,0 -9.9,-2.973 -11.7,-8.903 -1.8,-5.933 -2.69,-14.765 -2.69,-26.4996 0,-11.7343 0.89,-20.5664 2.69,-26.5 z M 1842.9,46 c -3.09,-5.0664 -6.5,-8.6016 -10.31,-10.5977 -3.79,-2.0039 -8.5,-3.0039 -14.1,-3.0039 -11.33,0 -19.67,4.3321 -25,13.0039 -5.34,8.6641 -7.99,22.9961 -7.99,42.9961 0,19.9996 2.65,34.4336 7.99,43.3006 5.33,8.867 13.67,13.301 25,13.301 5.21,0 9.63,-1.07 13.3,-3.199 3.67,-2.137 6.97,-5.336 9.9,-9.606 h 0.41 v 45.203 h 27.6 V 34.6016 h -26.41 V 46 h -0.39"
         style="fill:#57a519;fill-opacity:1;fill-rule:nonzero;stroke:none"
         id="path124" /><path
         d="m 1932.29,84.8984 c -2.12,-0.8671 -4.06,-1.5 -5.8,-1.8984 -5.6,-1.1992 -9.61,-3.1992 -12.01,-5.9961 -2.38,-2.8047 -3.59,-6.6016 -3.59,-11.4023 0,-4.1368 0.8,-7.6719 2.4,-10.6016 1.6,-2.9336 4.26,-4.3984 8.01,-4.3984 1.85,0 3.79,0.2968 5.8,0.8984 1.99,0.6016 3.83,1.5664 5.49,2.8984 1.66,1.336 3.03,3.0664 4.1,5.2032 1.07,2.1289 1.6,4.6679 1.6,7.5937 v 21.2031 c -1.87,-1.4687 -3.87,-2.6328 -6,-3.5 z m -44.39,26.9026 c 0,6.265 1,11.5 2.99,15.699 2.01,4.199 4.71,7.598 8.1,10.199 3.4,2.598 7.41,4.465 12,5.602 4.61,1.129 9.51,1.699 14.7,1.699 8.27,0 14.93,-0.801 20,-2.402 5.06,-1.598 9.01,-3.868 11.8,-6.797 2.79,-2.934 4.71,-6.438 5.7,-10.504 1,-4.067 1.51,-8.496 1.51,-13.293 V 55.4023 c 0,-5.0703 0.23,-9 0.7,-11.8046 0.45,-2.7969 1.35,-5.8008 2.7,-8.9961 h -26.41 c -0.94,1.7304 -1.64,3.5625 -2.09,5.4961 -0.47,1.9336 -0.9,3.832 -1.31,5.7031 h -0.39 c -3.2,-5.6016 -6.91,-9.2344 -11.11,-10.9024 -4.2,-1.664 -9.63,-2.5 -16.29,-2.5 -4.81,0 -8.87,0.836 -12.21,2.5 -3.34,1.668 -6,3.9688 -8.01,6.9024 -1.99,2.9297 -3.45,6.2305 -4.39,9.8984 -0.94,3.668 -1.41,7.3008 -1.41,10.8985 0,5.0703 0.55,9.4336 1.6,13.1015 1.08,3.6641 2.72,6.8008 4.91,9.3985 2.2,2.6015 5,4.7656 8.39,6.5039 3.4,1.7265 7.5,3.2617 12.31,4.5976 l 15.6,4.2028 c 4.13,1.063 7,2.528 8.6,4.399 1.6,1.863 2.4,4.597 2.4,8.199 0,4.129 -0.98,7.367 -2.89,9.699 -1.93,2.328 -5.23,3.5 -9.9,3.5 -4.28,0 -7.48,-1.265 -9.61,-3.801 -2.13,-2.535 -3.2,-5.933 -3.2,-10.203 v -2.996 h -24.79 v 2.602"
         style="fill:#57a519;fill-opacity:1;fill-rule:nonzero;stroke:none"
         id="path126" /><path
         d="m 2012,61.8984 c 1.8,-5.9296 5.69,-8.8984 11.7,-8.8984 6.11,0 10.1,2.9688 11.9,8.8984 1.79,5.9336 2.69,14.7657 2.69,26.5 0,11.7346 -0.9,20.5666 -2.69,26.4996 -1.8,5.93 -5.79,8.903 -11.9,8.903 -6.01,0 -9.9,-2.973 -11.7,-8.903 -1.81,-5.933 -2.71,-14.765 -2.71,-26.4996 0,-11.7343 0.9,-20.5664 2.71,-26.5 z M 2039.09,46 c -3.06,-5.0664 -6.5,-8.6016 -10.29,-10.5977 -3.81,-2.0039 -8.52,-3.0039 -14.1,-3.0039 -11.35,0 -19.67,4.3321 -25,13.0039 -5.33,8.6641 -8.01,22.9961 -8.01,42.9961 0,19.9996 2.68,34.4336 8.01,43.3006 5.33,8.867 13.65,13.301 25,13.301 5.19,0 9.63,-1.07 13.3,-3.199 3.65,-2.137 6.95,-5.336 9.9,-9.606 h 0.39 v 45.203 h 27.6 V 34.6016 H 2039.5 V 46 h -0.41"
         style="fill:#57a519;fill-opacity:1;fill-rule:nonzero;stroke:none"
         id="path128" /><path
         d="m 2134.48,177.398 h 28.81 V 34.6016 h -28.81 V 177.398"
         style="fill:#57a519;fill-opacity:1;fill-rule:nonzero;stroke:none"
         id="path130" /><path
         d="m 2222.49,119.801 h -41 v 22.394 h 73.6 V 121 L 2212.1,57.0039 h 42.99 V 34.6016 h -75.59 v 21.1992 l 42.99,64.0002"
         style="fill:#57a519;fill-opacity:1;fill-rule:nonzero;stroke:none"
         id="path132" /><path
         d="m 2302.69,173 v -30.805 h 15.99 v -18.797 h -15.99 V 65.1992 c 0,-4.2656 0.62,-7.2969 1.89,-9.1015 1.27,-1.7969 3.91,-2.6993 7.91,-2.6993 1.05,0 2.13,0.0352 3.2,0.1016 1.06,0.0664 2.05,0.168 2.99,0.3008 V 34.6016 c -3.06,0 -6.03,-0.0977 -8.89,-0.3008 -2.87,-0.1992 -5.89,-0.3008 -9.1,-0.3008 -5.33,0 -9.7,0.3711 -13.1,1.0977 -3.4,0.7304 -6,2.2031 -7.8,4.4062 -1.81,2.1953 -3.04,5.0977 -3.71,8.6953 -0.66,3.6016 -0.99,8.1328 -0.99,13.6016 v 61.5972 h -14.01 v 18.797 h 14.01 V 173 h 27.6"
         style="fill:#57a519;fill-opacity:1;fill-rule:nonzero;stroke:none"
         id="path134" /><path
         d="m 2372.49,84.8984 c -2.13,-0.8671 -4.06,-1.5 -5.8,-1.8984 -5.61,-1.1992 -9.61,-3.1992 -12.01,-5.9961 -2.39,-2.8047 -3.6,-6.6016 -3.6,-11.4023 0,-4.1368 0.8,-7.6719 2.41,-10.6016 1.6,-2.9336 4.25,-4.3984 8,-4.3984 1.86,0 3.79,0.2968 5.8,0.8984 2,0.6016 3.83,1.5664 5.49,2.8984 1.66,1.336 3.03,3.0664 4.1,5.2032 1.08,2.1289 1.61,4.6679 1.61,7.5937 v 21.2031 c -1.88,-1.4687 -3.87,-2.6328 -6,-3.5 z m -44.39,26.9026 c 0,6.265 0.99,11.5 2.98,15.699 2.02,4.199 4.71,7.598 8.11,10.199 3.4,2.598 7.4,4.465 11.99,5.602 4.61,1.129 9.51,1.699 14.71,1.699 8.26,0 14.92,-0.801 20,-2.402 5.06,-1.598 9,-3.868 11.8,-6.797 2.79,-2.934 4.7,-6.438 5.7,-10.504 0.99,-4.067 1.5,-8.496 1.5,-13.293 V 55.4023 c 0,-5.0703 0.24,-9 0.71,-11.8046 0.44,-2.7969 1.34,-5.8008 2.69,-8.9961 h -26.41 c -0.93,1.7304 -1.64,3.5625 -2.09,5.4961 -0.46,1.9336 -0.89,3.832 -1.3,5.7031 h -0.39 c -3.21,-5.6016 -6.92,-9.2344 -11.12,-10.9024 -4.2,-1.664 -9.63,-2.5 -16.29,-2.5 -4.8,0 -8.86,0.836 -12.2,2.5 -3.34,1.668 -6,3.9688 -8.01,6.9024 -1.99,2.9297 -3.46,6.2305 -4.4,9.8984 -0.93,3.668 -1.4,7.3008 -1.4,10.8985 0,5.0703 0.54,9.4336 1.6,13.1015 1.07,3.6641 2.71,6.8008 4.9,9.3985 2.21,2.6015 5,4.7656 8.4,6.5039 3.4,1.7265 7.5,3.2617 12.3,4.5976 l 15.61,4.2028 c 4.12,1.063 6.99,2.528 8.59,4.399 1.61,1.863 2.41,4.597 2.41,8.199 0,4.129 -0.98,7.367 -2.89,9.699 -1.94,2.328 -5.24,3.5 -9.91,3.5 -4.27,0 -7.48,-1.265 -9.61,-3.801 -2.12,-2.535 -3.2,-5.933 -3.2,-10.203 v -2.996 h -24.78 v 2.602"
         style="fill:#57a519;fill-opacity:1;fill-rule:nonzero;stroke:none"
         id="path136" /><path
         d="m 2454.79,61.8984 c 1.8,-5.9296 5.77,-8.8984 11.9,-8.8984 6,0 9.9,2.9688 11.7,8.8984 1.8,5.9336 2.69,14.7657 2.69,26.5 0,11.7346 -0.89,20.5666 -2.69,26.4996 -1.8,5.93 -5.7,8.903 -11.7,8.903 -6.13,0 -10.1,-2.973 -11.9,-8.903 -1.81,-5.933 -2.71,-14.765 -2.71,-26.4996 0,-11.7343 0.9,-20.5664 2.71,-26.5 z m -3.9,80.2966 v -11.394 h 0.39 c 3.07,5.062 6.5,8.703 10.31,10.898 3.79,2.203 8.5,3.301 14.1,3.301 11.33,0 19.67,-4.434 25,-13.301 5.34,-8.867 7.99,-23.301 7.99,-43.3006 0,-20 -2.65,-34.332 -7.99,-42.9961 -5.33,-8.6718 -13.67,-13.0039 -25,-13.0039 -5.21,0 -9.65,0.9688 -13.3,2.8985 -3.67,1.9336 -6.97,5.0351 -9.9,9.3047 h -0.41 V 0 h -27.6 v 142.195 h 26.41"
         style="fill:#57a519;fill-opacity:1;fill-rule:nonzero;stroke:none"
         id="path138" /><path
         d="m 2568.68,84.8984 c -2.13,-0.8671 -4.06,-1.5 -5.8,-1.8984 -5.59,-1.1992 -9.59,-3.1992 -11.99,-5.9961 -2.4,-2.8047 -3.6,-6.6016 -3.6,-11.4023 0,-4.1368 0.81,-7.6719 2.41,-10.6016 1.58,-2.9336 4.26,-4.3984 7.99,-4.3984 1.87,0 3.8,0.2968 5.8,0.8984 1.99,0.6016 3.82,1.5664 5.5,2.8984 1.66,1.336 3.03,3.0664 4.11,5.2032 1.05,2.1289 1.6,4.6679 1.6,7.5937 v 21.2031 c -1.88,-1.4687 -3.89,-2.6328 -6.02,-3.5 z m -44.39,26.9026 c 0,6.265 0.99,11.5 3,15.699 2,4.199 4.69,7.598 8.09,10.199 3.4,2.598 7.4,4.465 12.01,5.602 4.59,1.129 9.49,1.699 14.69,1.699 8.28,0 14.94,-0.801 20,-2.402 5.08,-1.598 9,-3.868 11.82,-6.797 2.79,-2.934 4.68,-6.438 5.68,-10.504 1.02,-4.067 1.5,-8.496 1.5,-13.293 V 55.4023 c 0,-5.0703 0.24,-9 0.71,-11.8046 0.47,-2.7969 1.36,-5.8008 2.69,-8.9961 h -26.38 c -0.94,1.7304 -1.64,3.5625 -2.11,5.4961 -0.47,1.9336 -0.9,3.832 -1.29,5.7031 h -0.41 c -3.21,-5.6016 -6.9,-9.2344 -11.1,-10.9024 -4.2,-1.664 -9.65,-2.5 -16.31,-2.5 -4.8,0 -8.86,0.836 -12.18,2.5 -3.34,1.668 -6.02,3.9688 -8.01,6.9024 -1.99,2.9297 -3.48,6.2305 -4.4,9.8984 -0.93,3.668 -1.4,7.3008 -1.4,10.8985 0,5.0703 0.53,9.4336 1.6,13.1015 1.05,3.6641 2.7,6.8008 4.9,9.3985 2.19,2.6015 5,4.7656 8.4,6.5039 3.4,1.7265 7.5,3.2617 12.31,4.5976 l 15.58,4.2028 c 4.14,1.063 7.01,2.528 8.61,4.399 1.61,1.863 2.41,4.597 2.41,8.199 0,4.129 -0.98,7.367 -2.91,9.699 -1.94,2.328 -5.24,3.5 -9.91,3.5 -4.25,0 -7.46,-1.265 -9.59,-3.801 -2.14,-2.535 -3.2,-5.933 -3.2,-10.203 v -2.996 h -24.8 v 2.602"
         style="fill:#57a519;fill-opacity:1;fill-rule:nonzero;stroke:none"
         id="path140" /><path
         d="M 2649.29,177.398 V 34.6016 h -27.6 V 177.398 h 27.6"
         style="fill:#57a519;fill-opacity:1;fill-rule:nonzero;stroke:none"
         id="path142" /><path
         d="m 2712.88,84.8984 c -2.13,-0.8671 -4.06,-1.5 -5.8,-1.8984 -5.59,-1.1992 -9.59,-3.1992 -11.99,-5.9961 -2.4,-2.8047 -3.6,-6.6016 -3.6,-11.4023 0,-4.1368 0.8,-7.6719 2.41,-10.6016 1.58,-2.9336 4.25,-4.3984 7.98,-4.3984 1.88,0 3.81,0.2968 5.81,0.8984 1.99,0.6016 3.82,1.5664 5.5,2.8984 1.66,1.336 3.03,3.0664 4.1,5.2032 1.06,2.1289 1.61,4.6679 1.61,7.5937 v 21.2031 c -1.88,-1.4687 -3.89,-2.6328 -6.02,-3.5 z m -44.39,26.9026 c 0,6.265 0.99,11.5 3,15.699 2,4.199 4.69,7.598 8.09,10.199 3.4,2.598 7.4,4.465 12.01,5.602 4.59,1.129 9.49,1.699 14.69,1.699 8.28,0 14.94,-0.801 20,-2.402 5.08,-1.598 9,-3.868 11.82,-6.797 2.79,-2.934 4.68,-6.438 5.68,-10.504 1.01,-4.067 1.5,-8.496 1.5,-13.293 V 55.4023 c 0,-5.0703 0.24,-9 0.71,-11.8046 0.47,-2.7969 1.36,-5.8008 2.69,-8.9961 h -26.39 c -0.93,1.7304 -1.64,3.5625 -2.1,5.4961 -0.47,1.9336 -0.9,3.832 -1.29,5.7031 h -0.41 c -3.21,-5.6016 -6.9,-9.2344 -11.1,-10.9024 -4.2,-1.664 -9.65,-2.5 -16.31,-2.5 -4.8,0 -8.86,0.836 -12.18,2.5 -3.34,1.668 -6.02,3.9688 -8.01,6.9024 -1.99,2.9297 -3.48,6.2305 -4.4,9.8984 -0.93,3.668 -1.4,7.3008 -1.4,10.8985 0,5.0703 0.53,9.4336 1.6,13.1015 1.05,3.6641 2.69,6.8008 4.9,9.3985 2.19,2.6015 5,4.7656 8.4,6.5039 3.4,1.7265 7.5,3.2617 12.3,4.5976 l 15.59,4.2028 c 4.14,1.063 7.01,2.528 8.61,4.399 1.61,1.863 2.41,4.597 2.41,8.199 0,4.129 -0.98,7.367 -2.91,9.699 -1.94,2.328 -5.24,3.5 -9.91,3.5 -4.25,0 -7.46,-1.265 -9.59,-3.801 -2.14,-2.535 -3.2,-5.933 -3.2,-10.203 v -2.996 h -24.8 v 2.602"
         style="fill:#57a519;fill-opacity:1;fill-rule:nonzero;stroke:none"
         id="path144" /><path
         d="m 2795.19,61.8984 c 1.79,-5.9296 5.76,-8.8984 11.89,-8.8984 6.02,0 9.9,2.9688 11.7,8.8984 1.82,5.9336 2.71,14.7657 2.71,26.5 0,11.7346 -0.89,20.5666 -2.71,26.4996 -1.8,5.93 -5.68,8.903 -11.7,8.903 -6.13,0 -10.1,-2.973 -11.89,-8.903 -1.8,-5.933 -2.7,-14.765 -2.7,-26.4996 0,-11.7343 0.9,-20.5664 2.7,-26.5 z m -3.91,80.2966 v -11.394 h 0.41 c 3.07,5.062 6.5,8.703 10.29,10.898 3.81,2.203 8.52,3.301 14.1,3.301 11.33,0 19.67,-4.434 25,-13.301 5.34,-8.867 8.01,-23.301 8.01,-43.3006 0,-20 -2.67,-34.332 -8.01,-42.9961 -5.33,-8.6718 -13.67,-13.0039 -25,-13.0039 -5.19,0 -9.62,0.9688 -13.3,2.8985 -3.67,1.9336 -6.97,5.0351 -9.9,9.3047 h -0.39 V 0 h -27.6 v 142.195 h 26.39"
         style="fill:#57a519;fill-opacity:1;fill-rule:nonzero;stroke:none"
         id="path146" /><path
         d="m 2909.09,84.8984 c -2.13,-0.8671 -4.06,-1.5 -5.8,-1.8984 -5.6,-1.1992 -9.61,-3.1992 -12.01,-5.9961 -2.38,-2.8047 -3.59,-6.6016 -3.59,-11.4023 0,-4.1368 0.8,-7.6719 2.4,-10.6016 1.6,-2.9336 4.26,-4.3984 8.01,-4.3984 1.85,0 3.78,0.2968 5.8,0.8984 1.99,0.6016 3.82,1.5664 5.48,2.8984 1.66,1.336 3.03,3.0664 4.11,5.2032 1.07,2.1289 1.6,4.6679 1.6,7.5937 v 21.2031 c -1.88,-1.4687 -3.87,-2.6328 -6,-3.5 z m -44.39,26.9026 c 0,6.265 0.99,11.5 2.99,15.699 2.01,4.199 4.7,7.598 8.1,10.199 3.4,2.598 7.4,4.465 11.99,5.602 4.61,1.129 9.51,1.699 14.71,1.699 8.26,0 14.92,-0.801 20,-2.402 5.06,-1.598 9,-3.868 11.8,-6.797 2.79,-2.934 4.7,-6.438 5.7,-10.504 1,-4.067 1.5,-8.496 1.5,-13.293 V 55.4023 c 0,-5.0703 0.24,-9 0.71,-11.8046 0.45,-2.7969 1.34,-5.8008 2.69,-8.9961 h -26.4 c -0.94,1.7304 -1.64,3.5625 -2.09,5.4961 -0.47,1.9336 -0.9,3.832 -1.31,5.7031 h -0.39 c -3.21,-5.6016 -6.92,-9.2344 -11.12,-10.9024 -4.2,-1.664 -9.62,-2.5 -16.29,-2.5 -4.8,0 -8.86,0.836 -12.2,2.5 -3.34,1.668 -6,3.9688 -8.01,6.9024 -1.99,2.9297 -3.46,6.2305 -4.39,9.8984 -0.94,3.668 -1.41,7.3008 -1.41,10.8985 0,5.0703 0.55,9.4336 1.6,13.1015 1.08,3.6641 2.72,6.8008 4.9,9.3985 2.21,2.6015 5,4.7656 8.4,6.5039 3.4,1.7265 7.5,3.2617 12.31,4.5976 l 15.6,4.2028 c 4.12,1.063 6.99,2.528 8.6,4.399 1.6,1.863 2.4,4.597 2.4,8.199 0,4.129 -0.98,7.367 -2.89,9.699 -1.94,2.328 -5.24,3.5 -9.91,3.5 -4.27,0 -7.48,-1.265 -9.6,-3.801 -2.13,-2.535 -3.21,-5.933 -3.21,-10.203 v -2.996 h -24.78 v 2.602"
         style="fill:#57a519;fill-opacity:1;fill-rule:nonzero;stroke:none"
         id="path148" /><path
         d="m 1480.58,34.6016 h -10 V 954.816 h 10 v -920.2144 0"
         style="fill:#ffffff;fill-opacity:1;fill-rule:nonzero;stroke:none"
         id="path150" /></g></g></svg>
